#!OML:ASF C:\Vicon Data\Big\jianyuan-13\jianyuan\Session 1\Capture.male.ASF
:FULLY-SPECIFIED
:DEGREES
209
root -5.722526 17.397641 -10.978002 5.810726 8.984731 3.125693
lowerback -8.241251 -1.473970 -5.557206 
upperback 3.186115 -1.260097 -0.951083 
thorax 8.120468 -0.873230 1.924257 
lowerneck -6.156941 -2.046555 1.749862 
upperneck -0.127826 -2.814127 -2.207046 
head 0.933294 -1.440437 -1.049699 
rclavicle 0.000000 0.000000 
rhumerus -45.396716 -18.730623 -76.487295 
rradius 27.164926 
rwrist 32.567626 
rhand -16.879492 -15.979481 
rfingers 0.000000 
rthumb 9.351598 -45.752078 
lclavicle 0.000000 0.000000 
lhumerus -18.305759 21.151412 87.114696 
lradius 29.487784 
lwrist -46.254349 
lhand -21.396520 1.288835 
lfingers 0.000000 
lthumb 4.991472 31.210032 
rfemur -32.706373 0.733134 14.349055 
rtibia 41.362233 
rfoot -14.054869 -5.981198 
rtoes -29.828560 
lfemur -7.683928 -3.402418 -27.869618 
ltibia 19.995759 
lfoot -15.170319 1.075969 
ltoes -26.248881 
210
root -5.714373 17.399256 -10.939649 5.733890 9.138089 3.132777
lowerback -8.089494 -1.529802 -5.567552 
upperback 3.182236 -1.345303 -0.940015 
thorax 8.035288 -0.913796 1.931884 
lowerneck -6.193472 -2.023418 1.853752 
upperneck -0.071755 -2.788242 -2.333521 
head 0.955493 -1.429648 -1.107966 
rclavicle 0.000000 0.000000 
rhumerus -45.422473 -18.695104 -76.480806 
rradius 27.224803 
rwrist 32.520818 
rhand -16.769623 -15.920583 
rfingers 0.000000 
rthumb 9.457668 -45.688362 
lclavicle 0.000000 0.000000 
lhumerus -18.209435 21.039890 87.240334 
lradius 29.541377 
lwrist -46.174720 
lhand -21.434255 1.242117 
lfingers 0.000000 
lthumb 4.955055 31.164201 
rfemur -32.778584 0.802756 14.302856 
rtibia 40.799936 
rfoot -13.871679 -6.340873 
rtoes -29.644419 
lfemur -7.335996 -3.497986 -27.889925 
ltibia 19.780095 
lfoot -15.145943 1.067546 
ltoes -26.103409 
211
root -5.706851 17.401273 -10.895021 5.669975 9.112695 3.090634
lowerback -8.064971 -1.526367 -5.523510 
upperback 3.195331 -1.347890 -0.927678 
thorax 8.034218 -0.913422 1.920174 
lowerneck -6.349593 -2.020754 2.030831 
upperneck 0.066262 -2.794862 -2.496650 
head 1.022446 -1.436361 -1.194576 
rclavicle 0.000000 0.000000 
rhumerus -45.414947 -18.696391 -76.516527 
rradius 27.293381 
rwrist 32.301809 
rhand -16.755999 -15.956084 
rfingers 0.000000 
rthumb 9.470755 -45.723247 
lclavicle 0.000000 0.000000 
lhumerus -18.097497 20.945106 87.359577 
lradius 29.593531 
lwrist -46.061717 
lhand -21.377737 1.263076 
lfingers 0.000000 
lthumb 5.009610 31.183857 
rfemur -32.861705 0.853941 14.363950 
rtibia 40.230141 
rfoot -13.651035 -6.611407 
rtoes -30.201632 
lfemur -6.937500 -3.533417 -27.865455 
ltibia 19.465235 
lfoot -15.183563 1.141008 
ltoes -25.987981 
212
root -5.696872 17.404865 -10.850341 5.644615 9.028286 3.102703
lowerback -8.075962 -1.531998 -5.516395 
upperback 3.194368 -1.354957 -0.935151 
thorax 8.039689 -0.916376 1.906966 
lowerneck -6.170758 -2.016222 1.910359 
upperneck -0.049073 -2.780888 -2.403343 
head 0.957637 -1.426933 -1.139355 
rclavicle 0.000000 0.000000 
rhumerus -45.380394 -18.587130 -76.605244 
rradius 27.290483 
rwrist 32.183742 
rhand -16.833460 -16.004822 
rfingers 0.000000 
rthumb 9.396027 -45.775332 
lclavicle 0.000000 0.000000 
lhumerus -18.046714 20.728889 87.439953 
lradius 29.681340 
lwrist -45.835961 
lhand -21.330416 1.242232 
lfingers 0.000000 
lthumb 5.055347 31.161950 
rfemur -33.016812 0.909061 14.367851 
rtibia 39.657542 
rfoot -13.291925 -6.835629 
rtoes -30.832573 
lfemur -6.560102 -3.481360 -27.907549 
ltibia 19.123661 
lfoot -15.210035 1.203957 
ltoes -26.030063 
213
root -5.688575 17.407253 -10.804184 5.578780 8.992746 3.085775
lowerback -8.059997 -1.532919 -5.483674 
upperback 3.212794 -1.360999 -0.926644 
thorax 8.049920 -0.918470 1.896730 
lowerneck -6.152020 -1.998874 1.860724 
upperneck -0.051650 -2.754425 -2.377318 
head 0.954983 -1.413242 -1.121655 
rclavicle 0.000000 0.000000 
rhumerus -45.389399 -18.679875 -76.520342 
rradius 27.339518 
rwrist 32.282426 
rhand -16.713882 -15.966660 
rfingers 0.000000 
rthumb 9.511373 -45.732020 
lclavicle 0.000000 0.000000 
lhumerus -18.005477 20.525649 87.541221 
lradius 29.765307 
lwrist -45.742744 
lhand -21.180732 1.219315 
lfingers 0.000000 
lthumb 5.199851 31.135495 
rfemur -33.084847 0.976853 14.404223 
rtibia 39.079700 
rfoot -13.001850 -7.340671 
rtoes -30.674615 
lfemur -6.143714 -3.437046 -27.911034 
ltibia 18.798442 
lfoot -15.225258 1.247267 
ltoes -26.180100 
